<svg xmlns="http://www.w3.org/2000/svg" xmlns:xlink="http://www.w3.org/1999/xlink" width="500" zoomAndPan="magnify" viewBox="0 0 375 135.000003" height="180" preserveAspectRatio="xMidYMid meet" version="1.0"><defs><g/><clipPath id="id1"><path d="M 9.8125 19.554688 L 90.960938 19.554688 L 90.960938 114.105469 L 9.8125 114.105469 Z M 9.8125 19.554688 " clip-rule="nonzero"/></clipPath></defs><g clip-path="url(#id1)"><path fill="rgb(98.429871%, 77.249146%, 4.708862%)" d="M 70.179688 51.121094 L 64.785156 51.121094 L 67.992188 47.433594 C 68.730469 47.605469 69.492188 47.699219 70.285156 47.699219 C 75.644531 47.699219 80.023438 43.371094 80.058594 38.039062 C 80.09375 32.671875 75.726562 28.285156 70.285156 28.261719 C 64.925781 28.261719 60.539062 32.589844 60.515625 37.921875 C 60.503906 39.296875 60.785156 40.65625 61.335938 41.902344 L 53.449219 51.121094 L 49.996094 51.121094 L 40.144531 39.003906 C 41.382812 37.015625 42.0625 34.710938 42.085938 32.347656 C 42.109375 28.949219 40.796875 25.746094 38.398438 23.335938 C 36 20.917969 32.804688 19.578125 29.308594 19.554688 C 22.308594 19.554688 16.578125 25.222656 16.53125 32.195312 C 16.507812 35.59375 17.816406 38.796875 20.214844 41.214844 C 22.613281 43.636719 25.820312 44.976562 29.308594 45 C 30.21875 45 31.132812 44.90625 32.011719 44.71875 L 37.195312 51.144531 L 30.582031 51.144531 C 21.234375 51.121094 9.835938 53.925781 9.835938 73.144531 L 9.835938 93.457031 C 9.835938 104.816406 19.175781 114.105469 30.59375 114.105469 L 70.179688 114.105469 C 81.589844 114.105469 90.9375 104.816406 90.9375 93.457031 L 90.9375 73.144531 C 90.9375 56.070312 79.53125 51.121094 70.179688 51.121094 Z M 72.261719 102.171875 L 28.511719 102.171875 C 25.292969 102.171875 22.578125 99.472656 22.578125 96.273438 L 22.601562 73.144531 L 22.601562 69.617188 C 22.71875 66.507812 25.375 63.925781 28.511719 63.925781 L 72.261719 63.925781 C 75.480469 63.925781 78.195312 66.625 78.195312 69.828125 L 78.171875 92.964844 L 78.195312 92.964844 L 78.195312 96.273438 C 78.195312 99.472656 75.480469 102.171875 72.261719 102.171875 Z M 72.261719 102.171875 " fill-opacity="1" fill-rule="nonzero"/></g><path fill="rgb(100%, 100%, 100%)" d="M 41.558594 89.894531 C 41.535156 86.144531 41.511719 80 41.488281 76.25 C 41.464844 72.503906 44.285156 70.957031 47.515625 72.804688 C 50.734375 74.667969 56.117188 77.707031 59.332031 79.570312 C 62.550781 81.429688 62.621094 84.492188 59.414062 86.390625 C 56.210938 88.289062 50.792969 91.382812 47.585938 93.269531 C 44.390625 95.167969 41.570312 93.640625 41.558594 89.894531 Z M 41.558594 89.894531 " fill-opacity="1" fill-rule="nonzero"/><g fill="rgb(100%, 100%, 100%)" fill-opacity="1"><g transform="translate(101.12183, 97.24784)"><g><path d="M 29.125 -25.0625 L 48.390625 0 L 33.59375 0 L 17.6875 -21.203125 L 17.6875 0 L 5.640625 0 L 5.640625 -48.1875 L 17.6875 -48.1875 L 17.6875 -27.75 L 32.703125 -48.1875 L 46.8125 -48.1875 Z M 29.125 -25.0625 "/></g></g></g><g fill="rgb(100%, 100%, 100%)" fill-opacity="1"><g transform="translate(147.105517, 97.24784)"><g><path d="M 34.421875 -25.8125 C 36.992188 -24.851562 39 -23.394531 40.4375 -21.4375 C 41.882812 -19.488281 42.609375 -17.1875 42.609375 -14.53125 C 42.609375 -10.21875 40.96875 -6.71875 37.6875 -4.03125 C 34.40625 -1.34375 29.597656 0 23.265625 0 L 5.640625 0 L 5.640625 -48.1875 L 22.515625 -48.1875 C 28.203125 -48.1875 32.628906 -47.039062 35.796875 -44.75 C 38.960938 -42.457031 40.546875 -39.289062 40.546875 -35.25 C 40.546875 -33.1875 39.984375 -31.335938 38.859375 -29.703125 C 37.734375 -28.078125 36.253906 -26.78125 34.421875 -25.8125 Z M 17.6875 -38.828125 L 17.6875 -28.703125 L 22.171875 -28.703125 C 24.191406 -28.703125 25.757812 -29.171875 26.875 -30.109375 C 28 -31.054688 28.5625 -32.285156 28.5625 -33.796875 C 28.5625 -35.265625 28 -36.46875 26.875 -37.40625 C 25.757812 -38.351562 24.191406 -38.828125 22.171875 -38.828125 Z M 23.546875 -9.359375 C 25.660156 -9.359375 27.3125 -9.875 28.5 -10.90625 C 29.695312 -11.9375 30.296875 -13.234375 30.296875 -14.796875 C 30.296875 -16.410156 29.707031 -17.71875 28.53125 -18.71875 C 27.363281 -19.726562 25.703125 -20.234375 23.546875 -20.234375 L 17.6875 -20.234375 L 17.6875 -9.359375 Z M 23.546875 -9.359375 "/></g></g></g><g fill="rgb(100%, 100%, 100%)" fill-opacity="1"><g transform="translate(189.509585, 97.24784)"><g><path d="M 17.21875 0.890625 C 13.539062 0.890625 10.394531 0.113281 7.78125 -1.4375 C 5.164062 -3 3.191406 -5.097656 1.859375 -7.734375 C 0.523438 -10.378906 -0.140625 -13.332031 -0.140625 -16.59375 L 11.84375 -16.59375 C 11.84375 -14.53125 12.300781 -12.9375 13.21875 -11.8125 C 14.132812 -10.6875 15.46875 -10.125 17.21875 -10.125 C 18.957031 -10.125 20.285156 -10.707031 21.203125 -11.875 C 22.117188 -13.039062 22.578125 -14.726562 22.578125 -16.9375 L 22.578125 -48.1875 L 34.625 -48.1875 L 34.625 -16.734375 C 34.625 -13.378906 33.9375 -10.367188 32.5625 -7.703125 C 31.1875 -5.046875 29.191406 -2.945312 26.578125 -1.40625 C 23.960938 0.125 20.84375 0.890625 17.21875 0.890625 Z M 17.21875 0.890625 "/></g></g></g><g fill="rgb(98.81897%, 77.249146%, 3.529358%)" fill-opacity="1"><g transform="translate(226.991244, 97.24784)"><g><path d="M 40.28125 -48.1875 L 38.28125 -37.65625 L 21.484375 -37.65625 L 19.625 -28.015625 L 35.796875 -28.015625 L 33.875 -17.96875 L 17.6875 -17.96875 L 14.25 0 L 2.203125 0 L 11.421875 -48.1875 Z M 40.28125 -48.1875 "/></g></g></g><g fill="rgb(98.81897%, 77.249146%, 3.529358%)" fill-opacity="1"><g transform="translate(261.960724, 97.24784)"><g><path d="M 32.359375 -36.21875 L 30.421875 -26.015625 L 25.265625 -26.015625 C 22.878906 -26.015625 20.835938 -25.347656 19.140625 -24.015625 C 17.441406 -22.691406 16.363281 -20.859375 15.90625 -18.515625 L 12.390625 0 L 0.890625 0 L 7.84375 -35.796875 L 18.453125 -35.796875 L 17.828125 -32.5625 C 20.304688 -35 23.585938 -36.21875 27.671875 -36.21875 Z M 32.359375 -36.21875 "/></g></g></g><g fill="rgb(98.81897%, 77.249146%, 3.529358%)" fill-opacity="1"><g transform="translate(288.87608, 97.24784)"><g><path d="M 22.78125 -36.6875 C 26.226562 -36.6875 29.28125 -35.941406 31.9375 -34.453125 C 34.601562 -32.960938 36.671875 -30.929688 38.140625 -28.359375 C 39.609375 -25.796875 40.34375 -22.972656 40.34375 -19.890625 C 40.34375 -18.015625 40.085938 -16.226562 39.578125 -14.53125 L 12.9375 -14.53125 C 13.21875 -12.320312 14 -10.628906 15.28125 -9.453125 C 16.570312 -8.285156 18.269531 -7.703125 20.375 -7.703125 C 21.976562 -7.703125 23.398438 -8.046875 24.640625 -8.734375 C 25.878906 -9.429688 26.773438 -10.285156 27.328125 -11.296875 L 38.625 -11.296875 C 37.15625 -7.804688 34.753906 -4.898438 31.421875 -2.578125 C 28.097656 -0.265625 24.140625 0.890625 19.546875 0.890625 C 16.203125 0.890625 13.1875 0.179688 10.5 -1.234375 C 7.8125 -2.660156 5.695312 -4.644531 4.15625 -7.1875 C 2.625 -9.738281 1.859375 -12.617188 1.859375 -15.828125 C 1.859375 -19.453125 2.753906 -22.859375 4.546875 -26.046875 C 6.335938 -29.242188 8.828125 -31.816406 12.015625 -33.765625 C 15.203125 -35.710938 18.789062 -36.6875 22.78125 -36.6875 Z M 22.375 -28.015625 C 20.351562 -28.015625 18.617188 -27.441406 17.171875 -26.296875 C 15.734375 -25.148438 14.644531 -23.613281 13.90625 -21.6875 L 29.609375 -21.6875 C 29.460938 -23.570312 28.769531 -25.097656 27.53125 -26.265625 C 26.289062 -27.429688 24.570312 -28.015625 22.375 -28.015625 Z M 22.375 -28.015625 "/></g></g></g><g fill="rgb(98.81897%, 77.249146%, 3.529358%)" fill-opacity="1"><g transform="translate(328.526612, 97.24784)"><g><path d="M 22.78125 -36.6875 C 26.226562 -36.6875 29.28125 -35.941406 31.9375 -34.453125 C 34.601562 -32.960938 36.671875 -30.929688 38.140625 -28.359375 C 39.609375 -25.796875 40.34375 -22.972656 40.34375 -19.890625 C 40.34375 -18.015625 40.085938 -16.226562 39.578125 -14.53125 L 12.9375 -14.53125 C 13.21875 -12.320312 14 -10.628906 15.28125 -9.453125 C 16.570312 -8.285156 18.269531 -7.703125 20.375 -7.703125 C 21.976562 -7.703125 23.398438 -8.046875 24.640625 -8.734375 C 25.878906 -9.429688 26.773438 -10.285156 27.328125 -11.296875 L 38.625 -11.296875 C 37.15625 -7.804688 34.753906 -4.898438 31.421875 -2.578125 C 28.097656 -0.265625 24.140625 0.890625 19.546875 0.890625 C 16.203125 0.890625 13.1875 0.179688 10.5 -1.234375 C 7.8125 -2.660156 5.695312 -4.644531 4.15625 -7.1875 C 2.625 -9.738281 1.859375 -12.617188 1.859375 -15.828125 C 1.859375 -19.453125 2.753906 -22.859375 4.546875 -26.046875 C 6.335938 -29.242188 8.828125 -31.816406 12.015625 -33.765625 C 15.203125 -35.710938 18.789062 -36.6875 22.78125 -36.6875 Z M 22.375 -28.015625 C 20.351562 -28.015625 18.617188 -27.441406 17.171875 -26.296875 C 15.734375 -25.148438 14.644531 -23.613281 13.90625 -21.6875 L 29.609375 -21.6875 C 29.460938 -23.570312 28.769531 -25.097656 27.53125 -26.265625 C 26.289062 -27.429688 24.570312 -28.015625 22.375 -28.015625 Z M 22.375 -28.015625 "/></g></g></g></svg>